<svg width="41" height="25" viewBox="0 0 41 25" fill="none" xmlns="http://www.w3.org/2000/svg">
<path d="M27.1403 4.754C27.2295 4.67421 27.3188 4.59609 27.4064 4.51796C27.5832 4.36337 27.755 4.20546 27.9234 4.04919C28.0868 3.88297 28.2805 3.77326 28.4506 3.63197C28.6257 3.49733 28.7942 3.3577 28.9659 3.23304C29.3213 3.00863 29.6514 2.76095 29.9865 2.57146C30.3217 2.38695 30.6333 2.18416 30.9432 2.04618C31.0964 1.96806 31.2429 1.89325 31.3827 1.82178C31.5276 1.75861 31.6657 1.69711 31.797 1.6406C32.3242 1.39957 32.7604 1.25329 33.0602 1.14523C33.3616 1.04883 33.5233 0.998958 33.5233 0.998958L33.5384 0.993971C33.5923 0.977349 33.6378 0.934129 33.6563 0.877614C33.6866 0.782864 33.6328 0.681468 33.5384 0.651549C33.5384 0.651549 33.3566 0.595034 33.0231 0.535192C32.8564 0.508596 32.6458 0.468702 32.4016 0.45374C32.1558 0.433793 31.8694 0.403872 31.5511 0.413847C31.3911 0.415509 31.221 0.412184 31.0442 0.422158C30.8673 0.437118 30.6821 0.45374 30.4901 0.472026C30.0993 0.498622 29.6901 0.58672 29.2438 0.676482C29.0164 0.713051 28.7958 0.782865 28.5651 0.852678C28.3327 0.924155 28.0935 0.997291 27.8493 1.07209C27.3811 1.26657 26.8691 1.45939 26.3706 1.72201C26.1247 1.85831 25.8721 1.9996 25.6178 2.15086C25.4898 2.22566 25.3618 2.30212 25.2321 2.37859C25.1108 2.46669 24.9879 2.55478 24.865 2.64288C24.6208 2.82739 24.3715 3.01356 24.1172 3.20305C23.8544 3.3859 23.6456 3.6236 23.4048 3.84135C23.1707 4.06742 22.9332 4.29514 22.6941 4.52621C22.4802 4.7772 22.2663 5.03319 22.0558 5.29748C21.8486 5.56344 21.623 5.82608 21.431 6.10863C21.2474 6.3962 21.0739 6.69374 20.8937 6.99127C20.7236 7.29546 20.5333 7.58634 20.3817 7.90881C20.2335 8.23793 20.0954 8.5737 19.9556 8.91115C19.8159 9.24692 19.6761 9.586 19.5464 9.92677C19.4571 10.2426 19.3662 10.5618 19.2752 10.8809C19.1843 11.2001 19.0933 11.5209 19.0024 11.8417L18.8491 12.3703L18.7296 12.8074C18.6875 12.9537 18.6538 13.1016 18.6066 13.2462L18.4466 13.6701L18.2866 14.0973C18.2311 14.2386 18.1603 14.3716 18.098 14.5112C17.586 15.6132 16.909 16.6405 16.0972 17.5481C15.2838 18.454 14.3592 19.2569 13.3689 19.9284C12.3803 20.6049 11.3344 21.1485 10.3071 21.6056C9.27638 22.0594 8.25913 22.4118 7.30082 22.6878C5.38257 23.2446 3.71188 23.5006 2.54313 23.6502C1.36925 23.7948 0.695584 23.8048 0.695584 23.8048C0.609691 23.8064 0.53559 23.8696 0.523799 23.956C0.51201 24.0508 0.579378 24.1389 0.677058 24.1505H0.680426C0.680426 24.1505 1.36927 24.237 2.5751 24.2619C3.17801 24.2752 3.91234 24.2685 4.75609 24.217C5.59816 24.1655 6.55142 24.0824 7.5838 23.9112C9.64183 23.5687 12.0638 22.9487 14.4485 21.6688C15.6375 21.0322 16.8164 20.2326 17.8674 19.2353C18.9216 18.2462 19.8564 17.076 20.5974 15.7911C20.69 15.6299 20.7911 15.4736 20.877 15.3091L21.1245 14.8137C21.2913 14.4829 21.4529 14.1488 21.5877 13.808L21.7999 13.2977L21.8521 13.1697L21.879 13.1066L21.8858 13.0899C21.9077 13.0251 21.8622 13.1598 21.8689 13.1415L21.8807 13.1132L21.9801 12.8822C22.1148 12.5763 22.2479 12.2705 22.3809 11.9663C22.514 11.6621 22.647 11.3596 22.78 11.0571C22.9299 10.8044 23.068 10.5517 23.2045 10.3008C23.3409 10.0498 23.479 9.80207 23.6019 9.54944C23.7417 9.30176 23.9084 9.06241 24.055 8.81973C24.2015 8.57538 24.348 8.33437 24.4844 8.09003C24.636 7.85731 24.8027 7.64122 24.9543 7.41683C25.1126 7.19576 25.2541 6.96637 25.4073 6.74862C25.5741 6.54416 25.7374 6.34137 25.8991 6.1419C25.9799 6.0405 26.0591 5.94076 26.1399 5.84103C26.2174 5.73797 26.2966 5.63824 26.3858 5.55346C26.5593 5.37228 26.7294 5.19442 26.8978 5.01823C26.977 4.93179 27.0595 4.84203 27.1403 4.75393L27.1403 4.754Z" fill="#4AF6CD"/>
<path fill-rule="evenodd" clip-rule="evenodd" d="M39.7768 23.4509C40.4218 23.7352 40.7974 23.8732 40.7974 23.8732L40.7975 23.8732C40.8615 23.8964 40.8951 23.9662 40.8699 24.0261C40.848 24.0809 40.789 24.1125 40.7301 24.1025C40.7301 24.1025 40.3276 24.0261 39.6354 23.8515C38.9415 23.6803 37.963 23.3861 36.8077 22.9589C36.7162 22.9233 36.6232 22.8878 36.5289 22.8517C36.3281 22.7749 36.1214 22.6958 35.9117 22.6098C35.7676 22.5473 35.6212 22.4844 35.4728 22.4206C35.3056 22.3488 35.1357 22.2758 34.9635 22.2009C34.8402 22.1407 34.7154 22.08 34.5893 22.0187C34.3883 21.9209 34.1842 21.8217 33.9783 21.7205C33.7318 21.5846 33.4816 21.4458 33.2276 21.3049C33.1431 21.2581 33.0582 21.211 32.9728 21.1637C32.8657 21.0964 32.7582 21.0288 32.6502 20.9609C32.4222 20.8174 32.1921 20.6726 31.959 20.5271C31.72 20.3603 31.4845 20.1841 31.2463 20.0059C31.152 19.9355 31.0574 19.8647 30.9619 19.794C30.7926 19.6482 30.6229 19.5009 30.4527 19.3532C30.3028 19.2232 30.1525 19.0929 30.0019 18.9629C29.9121 18.8692 29.8216 18.7757 29.7307 18.6819C29.5217 18.4662 29.3114 18.249 29.106 18.0254L28.6967 17.5085L28.4929 17.2492L28.3885 17.1195L28.3633 17.0879L28.3498 17.0713C28.3474 17.0672 28.3467 17.0659 28.3467 17.066C28.3469 17.0664 28.3646 17.0972 28.3161 17.0164L28.311 17.0081L28.2689 16.945L27.9389 16.4446C27.9051 16.3908 27.871 16.3411 27.8369 16.2913C27.7604 16.1798 27.6838 16.068 27.6104 15.9094C27.5607 15.8075 27.5081 15.7055 27.4554 15.6031C27.2922 15.2861 27.1274 14.9661 27.0395 14.6394C27.0251 14.5957 27.0104 14.552 26.9958 14.5083C26.9387 14.338 26.8817 14.1678 26.8374 13.9945C26.8218 13.8993 26.8065 13.8043 26.7912 13.7097C26.7703 13.5797 26.7494 13.4502 26.7279 13.3213C26.7234 13.2773 26.7175 13.2338 26.7116 13.1905C26.7025 13.1224 26.6933 13.0546 26.6892 12.9855L26.6926 12.6431C26.6955 12.5783 26.697 12.5138 26.6985 12.4495C26.7023 12.2878 26.706 12.1276 26.7313 11.9683C26.7599 11.7954 26.7964 11.6255 26.8325 11.4578C26.8432 11.4078 26.8539 11.358 26.8644 11.3084C26.8902 11.1642 26.9475 11.0245 27.0038 10.8873C27.0319 10.8188 27.0597 10.7509 27.0833 10.6833L27.2046 10.3841C27.2336 10.3201 27.2716 10.2583 27.3091 10.1973C27.3281 10.1664 27.347 10.1356 27.3646 10.1049C27.3992 10.0501 27.4324 9.99525 27.4653 9.94081C27.5414 9.81503 27.6161 9.69163 27.7031 9.57795C27.714 9.56532 27.7248 9.55272 27.7357 9.54015C27.9948 9.23977 28.2412 8.95406 28.5435 8.74186C28.7626 8.54627 29.0176 8.41327 29.2581 8.28778C29.3263 8.25223 29.3933 8.21729 29.458 8.18169C29.5721 8.13147 29.6891 8.09299 29.8027 8.05559C29.8432 8.04224 29.8833 8.02903 29.9228 8.01547C29.9379 8.01044 29.9529 8.0054 29.9679 8.00038C30.1013 7.95558 30.2294 7.91257 30.3657 7.89911C30.945 7.78442 31.457 7.816 31.8494 7.89413C32.0482 7.93568 32.2183 7.98223 32.3631 8.02378C32.5063 8.08528 32.6242 8.13848 32.7168 8.18502C32.902 8.27645 32.9947 8.32797 32.9947 8.32797C33.0553 8.36288 33.0755 8.43934 33.0401 8.49918C33.0199 8.53409 32.9862 8.5557 32.9492 8.56068L32.9324 8.56401C32.9324 8.56401 32.8296 8.57897 32.6376 8.60723C32.5615 8.62088 32.4718 8.63117 32.3712 8.64271C32.3493 8.64521 32.327 8.64777 32.3042 8.65044C32.2612 8.66217 32.2161 8.67521 32.1693 8.68874C32.0768 8.71549 31.9776 8.74417 31.8747 8.76846C31.7673 8.78555 31.6567 8.83626 31.543 8.88841C31.4909 8.91232 31.4381 8.93653 31.3846 8.95795C31.2676 8.99349 31.1559 9.06314 31.0418 9.13422C30.9852 9.16954 30.928 9.2052 30.8693 9.23721C30.7512 9.30667 30.6408 9.39956 30.5298 9.49295C30.4761 9.5381 30.4223 9.58337 30.3674 9.62617C30.3177 9.68484 30.2647 9.7396 30.2117 9.79441C30.11 9.89954 30.0081 10.0048 29.9295 10.1381C29.6499 10.4988 29.4579 10.951 29.3501 11.4413C29.3427 11.4877 29.3312 11.5326 29.3197 11.5774C29.2998 11.6546 29.28 11.7318 29.2811 11.817C29.2788 11.8467 29.2767 11.8766 29.2746 11.9064C29.2673 12.0085 29.26 12.111 29.2457 12.2126C29.2392 12.2859 29.2435 12.3627 29.2477 12.4401C29.2512 12.503 29.2547 12.5662 29.2524 12.6281C29.2524 12.6456 29.2525 12.663 29.2527 12.6805C29.253 12.7329 29.2533 12.7856 29.2508 12.8392C29.2531 12.8889 29.2611 12.9394 29.2692 12.9902C29.2728 13.0124 29.2763 13.0347 29.2794 13.057C29.2873 13.1343 29.2948 13.212 29.3022 13.29C29.3091 13.3612 29.3159 13.4327 29.3232 13.5042C29.3602 13.6554 29.3939 13.81 29.4242 13.9662C29.4545 14.1756 29.5134 14.365 29.573 14.5571C29.6061 14.6639 29.6395 14.7715 29.6684 14.8838C29.6853 14.9859 29.7468 15.1168 29.8082 15.2474C29.8327 15.2998 29.8573 15.352 29.879 15.4024L30.1282 15.9459L30.1585 16.0141L30.1619 16.0191L30.1653 16.0257L30.2343 16.1421L30.3758 16.3715L30.6604 16.8369C30.7887 17.002 30.9164 17.167 31.0439 17.3317C31.1424 17.459 31.2408 17.5861 31.3391 17.7129L32.1071 18.5307C32.3833 18.785 32.6578 19.0377 32.9306 19.287C33.026 19.3652 33.121 19.4431 33.2156 19.5208C33.4067 19.6777 33.5964 19.8334 33.7845 19.9868C34.0793 20.2029 34.3706 20.4157 34.6552 20.6235C34.95 20.8213 35.2396 21.0141 35.5209 21.2003C35.8105 21.3782 36.0918 21.551 36.3646 21.7189C36.5397 21.8222 36.7135 21.9194 36.8833 22.0145C36.9813 22.0694 37.0781 22.1235 37.173 22.1777C37.6968 22.4636 38.1869 22.7129 38.6265 22.9224C39.0677 23.1335 39.4551 23.3097 39.7768 23.4509ZM30.1415 15.9842C30.1415 15.9859 30.1431 15.9859 30.1398 15.9825L30.1482 15.9975L30.1516 16.0008C30.1482 15.9958 30.1431 15.9875 30.1415 15.9842Z" fill="#4AF6CD"/>
<path d="M32.3378 2.85236C31.5462 3.01359 31.046 3.21804 31.046 3.21804C31.014 3.23134 30.9887 3.26292 30.9887 3.29949C30.987 3.3477 31.0274 3.38759 31.0763 3.38759C31.078 3.38759 31.6001 3.39091 32.3698 3.47901C32.7538 3.51557 33.195 3.59203 33.6599 3.67182C34.123 3.77488 34.6131 3.86796 35.0831 4.01423C35.201 4.05412 35.3189 4.08571 35.4334 4.12892C35.5462 4.17879 35.6574 4.22699 35.7685 4.27519C35.9909 4.36994 36.1997 4.47466 36.4102 4.54613C36.6241 4.6093 36.8313 4.66415 37.0351 4.70072C37.2439 4.73396 37.4427 4.76554 37.6262 4.7938C37.8132 4.82205 37.9951 4.83203 38.1601 4.84034C38.3201 4.85696 38.4684 4.86694 38.5947 4.86694C38.849 4.87192 39.0174 4.85364 39.0174 4.85364L39.0241 4.85198C39.0326 4.85031 39.0393 4.84865 39.0477 4.84699C39.105 4.82704 39.1336 4.76388 39.1134 4.70737C39.1134 4.70737 39.0578 4.55611 38.9214 4.33337C38.854 4.21868 38.7631 4.09069 38.6502 3.94775C38.5357 3.80978 38.3926 3.67348 38.2292 3.5322C38.1483 3.45906 38.0591 3.38925 37.9664 3.31944C37.8688 3.2596 37.7711 3.19145 37.6633 3.13327C37.4544 3.00528 37.2204 2.89059 36.9643 2.82244C36.71 2.74598 36.4372 2.70609 36.1576 2.69445C35.8797 2.66952 35.6001 2.65789 35.3222 2.64459C35.046 2.61966 34.7698 2.62298 34.5003 2.61799C34.2309 2.61134 33.9647 2.63794 33.7104 2.65124C33.4544 2.68116 33.2119 2.69445 32.9812 2.73601C32.7521 2.77424 32.5366 2.81081 32.3378 2.85236L32.3378 2.85236Z" fill="#4AF6CD"/>
<path d="M38.0337 9.00252C38.2021 9.07732 38.3335 9.16043 38.4648 9.22027C38.7057 9.35325 38.8741 9.43304 38.8741 9.43304L38.8842 9.43802C38.8977 9.44467 38.9128 9.448 38.9297 9.448C38.9836 9.44634 39.0273 9.40145 39.0273 9.3466C39.0273 9.3466 39.0257 9.30172 39.024 9.21861C39.0189 9.1355 39.0139 9.01083 38.9802 8.85957C38.9431 8.71163 38.8977 8.5238 38.805 8.33097C38.7225 8.12818 38.5979 7.9204 38.4429 7.70595C38.3638 7.60123 38.2745 7.49485 38.1819 7.38846C38.0825 7.29039 37.9832 7.18068 37.8703 7.08427C37.648 6.88647 37.392 6.70362 37.1074 6.559C36.8228 6.41604 36.5096 6.31132 36.1913 6.2332C35.873 6.14843 35.5513 6.08194 35.2346 6.0088C34.6014 5.86419 33.9682 5.76279 33.3737 5.71625C32.7809 5.66139 32.2268 5.65142 31.7535 5.65641C30.8087 5.66804 30.1873 5.76113 30.1873 5.76113C30.1502 5.76611 30.1199 5.79437 30.1115 5.83094C30.1031 5.87914 30.1334 5.92569 30.1822 5.934C30.1822 5.934 30.7902 6.04869 31.6778 6.27975C32.1207 6.39278 32.631 6.54072 33.1665 6.71524C33.4343 6.80001 33.7055 6.90307 33.9817 6.99948C34.2545 7.09922 34.529 7.20892 34.7951 7.32694C35.0612 7.44662 35.3188 7.58292 35.5563 7.73252C35.7971 7.88046 36.0211 8.03172 36.2468 8.15473C36.4725 8.27608 36.6897 8.38246 36.907 8.47555C37.1209 8.57362 37.323 8.6667 37.5099 8.75314C37.7019 8.8429 37.8787 8.92767 38.0336 9.00247L38.0337 9.00252Z" fill="#4AF6CD"/>
<path d="M37.0938 11.0889C37.0298 10.9576 36.9389 10.8346 36.8378 10.7033C36.7385 10.5703 36.6105 10.4639 36.469 10.3625C36.3275 10.2628 36.1558 10.2029 35.9857 10.1381C35.8139 10.0816 35.6404 10.0267 35.4737 9.96524C35.1368 9.85387 34.8017 9.74749 34.48 9.69097C34.1617 9.62116 33.8585 9.58958 33.6025 9.56298C33.0905 9.51145 32.7436 9.53306 32.7436 9.53306C32.7183 9.53472 32.6948 9.54968 32.6813 9.57462C32.6644 9.61119 32.6796 9.6544 32.7167 9.67102C32.7167 9.67102 33.0215 9.81231 33.4594 10.0384C33.6766 10.1564 33.9242 10.2977 34.1836 10.4523C34.3099 10.5321 34.4413 10.6135 34.5726 10.695C34.7057 10.7748 34.832 10.8678 34.96 10.9543C35.0829 11.0474 35.2008 11.1488 35.3086 11.2535C35.4097 11.3648 35.5191 11.4613 35.6236 11.5444C35.7263 11.6275 35.8509 11.6823 35.9621 11.7388C36.0715 11.797 36.1911 11.8386 36.3006 11.8818C36.405 11.9267 36.5128 11.9633 36.6172 11.9932C36.7216 12.0231 36.8042 12.058 36.8867 12.0796C37.0484 12.1278 37.1663 12.1478 37.1663 12.1478L37.1713 12.1494C37.2235 12.1594 37.274 12.1245 37.2842 12.073C37.2842 12.073 37.3044 11.9632 37.2926 11.7821C37.2858 11.6923 37.2757 11.5776 37.242 11.4629C37.2067 11.3482 37.1595 11.2219 37.0938 11.0889H37.0938Z" fill="#4AF6CD"/>
</svg>
