<svg width="20" height="25" viewBox="0 0 20 25" fill="none" xmlns="http://www.w3.org/2000/svg">
<path d="M5.97904 15.7441C4.47112 15.7441 3.24426 14.5332 3.24426 13.0449C3.24426 12.7285 3.50547 12.4707 3.82603 12.4707C4.14661 12.4707 4.4078 12.7285 4.4078 13.0449C4.4078 13.9004 5.11424 14.5977 5.98102 14.5977C6.84779 14.5977 7.55424 13.9004 7.55424 13.0449C7.55424 12.7285 7.81544 12.4707 8.136 12.4707C8.45658 12.4707 8.71777 12.7285 8.71777 13.0449C8.71382 14.5332 7.48691 15.7441 5.97904 15.7441V15.7441Z" fill="#4AF6CD" stroke="#4AF6CD" stroke-width="0.5"/>
<path d="M10.2871 15.7441C8.77914 15.7441 7.55225 14.5332 7.55225 13.0449C7.55225 12.7285 7.81347 12.4707 8.13403 12.4707C8.45459 12.4707 8.71581 12.7285 8.71581 13.0449C8.71581 13.9004 9.42227 14.5977 10.2891 14.5977C11.1558 14.5977 11.8623 13.9004 11.8623 13.0449C11.8623 12.7285 12.1235 12.4707 12.4441 12.4707C12.7647 12.4707 13.0259 12.7285 13.0259 13.0449C13.0219 14.5332 11.795 15.7441 10.2871 15.7441V15.7441Z" fill="#4AF6CD" stroke="#4AF6CD" stroke-width="0.5"/>
<path d="M14.5953 15.7441C13.0873 15.7441 11.8605 14.5332 11.8605 13.0449C11.8605 12.7285 12.1217 12.4707 12.4422 12.4707C12.7628 12.4707 13.024 12.7285 13.024 13.0449C13.024 13.9004 13.7305 14.5977 14.5972 14.5977C15.464 14.5977 16.1704 13.9004 16.1704 13.0449C16.1704 12.7285 16.4317 12.4707 16.7522 12.4707C17.0728 12.4707 17.334 12.7285 17.334 13.0449C17.33 14.5332 16.1031 15.7441 14.5953 15.7441V15.7441Z" fill="#4AF6CD" stroke="#4AF6CD" stroke-width="0.5"/>
<path fill-rule="evenodd" clip-rule="evenodd" d="M1.08936 15.0685C1.08936 20.0742 5.21508 24.1465 10.2871 24.1465L10.2874 24.1466C15.3592 24.1466 19.4852 20.0746 19.4872 15.0686C19.4872 8.23659 11.0336 0.795043 10.6734 0.480587C10.4617 0.295042 10.143 0.289182 9.92339 0.464962C9.56118 0.751963 1.08936 7.59197 1.08936 15.0685ZM10.271 1.67772C10.2711 1.67764 10.2712 1.67757 10.2713 1.67749H10.2708C10.2709 1.67757 10.271 1.67764 10.271 1.67772ZM2.25085 15.068C2.25085 9.00184 8.6301 3.09802 10.271 1.67772C11.8981 3.19163 18.3211 9.52529 18.3191 15.068C18.3191 19.4409 14.7155 22.9976 10.285 22.9976C5.85443 22.9976 2.25085 19.4411 2.25085 15.068Z" fill="#4AF6CD"/>
<path d="M10.2871 24.1465L10.3986 23.9227L10.3459 23.8965H10.2871V24.1465ZM10.2874 24.1466L10.1759 24.3704L10.2286 24.3966H10.2874V24.1466ZM19.4872 15.0686L19.7372 15.0687V15.0686H19.4872ZM10.6734 0.480587L10.5087 0.668618L10.509 0.668909L10.6734 0.480587ZM9.92339 0.464962L10.0787 0.660912L10.0796 0.660156L9.92339 0.464962ZM10.2713 1.67749L10.4346 1.86678L10.9438 1.42749H10.2713V1.67749ZM10.2708 1.67749V1.42749H9.63678L10.1002 1.86021L10.2708 1.67749ZM18.3191 15.068L18.0691 15.0679V15.068H18.3191ZM10.2871 23.8965C5.35006 23.8965 1.33936 19.9331 1.33936 15.0685H0.839355C0.839355 20.2154 5.0801 24.3965 10.2871 24.3965V23.8965ZM10.3988 23.9228L10.3986 23.9227L10.1757 24.3703L10.1759 24.3704L10.3988 23.9228ZM19.2372 15.0685C19.2353 19.9334 15.2242 23.8966 10.2874 23.8966V24.3966C15.4942 24.3966 19.7351 20.2158 19.7372 15.0687L19.2372 15.0685ZM10.509 0.668909C10.6838 0.821564 12.8741 2.74877 15.0186 5.48474C17.1717 8.23158 19.2372 11.7422 19.2372 15.0686H19.7372C19.7372 11.563 17.5759 7.93683 15.4121 5.17629C13.2398 2.40486 11.0232 0.454066 10.8378 0.292266L10.509 0.668909ZM10.0796 0.660156C10.2054 0.55947 10.3887 0.563545 10.5087 0.668618L10.8382 0.292557C10.5346 0.0265393 10.0807 0.0188946 9.76719 0.269769L10.0796 0.660156ZM1.33936 15.0685C1.33936 11.4179 3.41217 7.89532 5.56509 5.22766C7.7122 2.56719 9.90507 0.798447 10.0786 0.660909L9.76814 0.269016C9.5795 0.418478 7.35534 2.21324 5.176 4.91365C3.00245 7.60686 0.839355 11.2426 0.839355 15.0685H1.33936ZM10.108 1.4882L10.1077 1.48843L10.4343 1.867L10.4346 1.86678L10.108 1.4882ZM10.2708 1.92749H10.2713V1.42749H10.2708V1.92749ZM10.4417 1.495L10.4414 1.49477L10.1002 1.86021L10.1004 1.86044L10.4417 1.495ZM10.1074 1.48869C9.2803 2.20461 7.26035 4.04904 5.44524 6.48114C3.6348 8.907 2.00085 11.9535 2.00085 15.068H2.50085C2.50085 12.1164 4.05654 9.17787 5.84595 6.78019C7.6307 4.38877 9.62084 2.57114 10.4346 1.86674L10.1074 1.48869ZM18.5691 15.0681C18.5701 12.2125 16.9224 9.18791 15.1075 6.71418C13.2855 4.23075 11.2603 2.25673 10.4413 1.49469L10.1007 1.86074C10.9088 2.61261 12.9087 4.56238 14.7044 7.00995C16.5072 9.46722 18.0701 12.3808 18.0691 15.0679L18.5691 15.0681ZM10.285 23.2476C14.8505 23.2476 18.5691 19.582 18.5691 15.068H18.0691C18.0691 19.2997 14.5805 22.7476 10.285 22.7476V23.2476ZM2.00085 15.068C2.00085 19.5823 5.71946 23.2476 10.285 23.2476V22.7476C5.9894 22.7476 2.50085 19.2999 2.50085 15.068H2.00085Z" fill="#4AF6CD"/>
</svg>
