<svg width="27" height="24" viewBox="0 0 27 24" fill="none" xmlns="http://www.w3.org/2000/svg">
<path d="M18.2006 8.71002H0.638184V10.8763H18.2006C21.2269 10.8763 23.6884 8.44594 23.6884 5.46002C23.6884 2.47314 21.2259 0.0437012 18.2006 0.0437012C15.1743 0.0437012 12.7128 2.4741 12.7128 5.46002H14.9077C14.9077 3.66847 16.3854 2.21002 18.2006 2.21002C20.0158 2.21002 21.4935 3.66847 21.4935 5.46002C21.4935 7.25158 20.0158 8.71002 18.2006 8.71002Z" fill="#4AF6CD"/>
<path d="M21.4935 13.0437H0.638184V15.21H21.4935C23.3087 15.21 24.7864 16.6685 24.7864 18.46C24.7864 20.2516 23.3087 21.71 21.4935 21.71C19.6783 21.71 18.2006 20.2516 18.2006 18.46H16.0057C16.0057 21.4469 18.4682 23.8763 21.4935 23.8763C24.5198 23.8763 26.9813 21.4459 26.9813 18.46C26.9813 15.4731 24.5188 13.0437 21.4935 13.0437Z" fill="#4AF6CD"/>
</svg>
